<svg id="Capa_1" data-name="Capa 1" xmlns="http://www.w3.org/2000/svg" viewBox="0 0 351.42 512"><defs><style>.cls-1{fill:#1abc9c;}</style></defs><title>Experience</title><path class="cls-1" d="M240.52,89.06A44.53,44.53,0,1,0,196,44.53,44.58,44.58,0,0,0,240.52,89.06Z" transform="translate(-80.29 0)"/><path class="cls-1" d="M428.86,200.17l-32.1-32.11a9.75,9.75,0,0,0-13.76,0l-9.41,9.4c-.38-.45-.77-.9-1.19-1.32a22.86,22.86,0,0,0-15.15-6.63,18.41,18.41,0,0,0-1.13-1.74l-15.29-20.85a101,101,0,0,0-18.25-18.36L282.05,98.47c-1.3-1-5.63-3.71-10.3-3.71l-57.14,0c-6.63.14-11.47,3.74-14.78,11L182.36,144a8.76,8.76,0,0,1-1.94,1.59l-35.6,8.47a18.85,18.85,0,0,0,4.34,37.18,19.07,19.07,0,0,0,4.38-.52l35.94-8.55c11.14-2.65,22.25-11.77,27-22.19l1.48-3.25,9.69,38.05-25,21.76c-9.71,8.43-14.7,23.12-12.13,35.73l11.61,56.9a19.87,19.87,0,0,0,38.94-8l-11.34-55.57,25.91-22.5a22.69,22.69,0,0,0,1.89-1.91h19.06l12.84,47.92a124.78,124.78,0,0,0,9.25,23.22l28.2,52.09a19.87,19.87,0,0,0,17.49,10.41c.36,0,.72,0,1.07,0a19.87,19.87,0,0,0,16.38-29.3l-28.2-52.09a84.45,84.45,0,0,1-5.81-14.6l-26.94-99.47a65.69,65.69,0,0,1,9.6,9.83l15.3,20.85a18.7,18.7,0,0,0,4.77,4.54,22.84,22.84,0,0,0,6.66,16.77c.42.43.87.82,1.32,1.2l-9.4,9.4a9.75,9.75,0,0,0,0,13.76l32.11,32.11a9.66,9.66,0,0,0,6.88,2.84h0a9.69,9.69,0,0,0,6.88-2.84l53.91-53.91A9.73,9.73,0,0,0,428.86,200.17Zm-83.52,3a11.15,11.15,0,0,1-3-5.5,18.78,18.78,0,0,0,17.21-16.16,11,11,0,0,1,4.66,2.77,10.79,10.79,0,0,1,1.15,1.38l-18.66,18.66A11.59,11.59,0,0,1,345.34,203.2Z" transform="translate(-80.29 0)"/><path class="cls-1" d="M156.59,289.46H91.73a11.45,11.45,0,0,0-11.44,11.43V500.56A11.45,11.45,0,0,0,91.73,512h64.86A11.45,11.45,0,0,0,168,500.56V300.89A11.45,11.45,0,0,0,156.59,289.46Z" transform="translate(-80.29 0)"/><path class="cls-1" d="M259.65,332.74H194.78a11.45,11.45,0,0,0-11.43,11.43V500.56A11.45,11.45,0,0,0,194.78,512h64.87a11.45,11.45,0,0,0,11.43-11.44V344.17A11.45,11.45,0,0,0,259.65,332.74Z" transform="translate(-80.29 0)"/><path class="cls-1" d="M362.7,361.62H297.84a11.45,11.45,0,0,0-11.44,11.43V500.56A11.45,11.45,0,0,0,297.84,512H362.7a11.46,11.46,0,0,0,11.44-11.44V373.05A11.45,11.45,0,0,0,362.7,361.62Z" transform="translate(-80.29 0)"/></svg>