<svg id="Capa_1" data-name="Capa 1" xmlns="http://www.w3.org/2000/svg" viewBox="0 0 512 512"><defs><style>.cls-1{fill:#1abc9c;}</style></defs><title>Payment</title><path class="cls-1" d="M256,0C114.62,0,0,114.62,0,256S114.62,512,256,512,512,397.38,512,256,397.41,0,256,0Zm69.81,354.84q-18.88,21.2-54.56,24.94V416H240.94V380q-59.49-6.09-73.66-69.13l46.88-12.22q6.51,39.61,43.12,39.6c11.41,0,19.84-2.81,25.22-8.47a28.61,28.61,0,0,0,8.06-20.47q0-12.42-8.06-18.81t-35.88-16.25q-25-8.67-39.06-17.16a64.5,64.5,0,0,1-22.84-23.68q-8.78-15.28-8.78-35.57a78.86,78.86,0,0,1,15.68-47.87q15.66-21.24,49.32-26V96h30.31v28q50.82,6.09,65.78,57.5l-41.75,17.12q-12.22-35.25-37.78-35.25c-8.56,0-15.44,2.63-20.59,7.88a26.16,26.16,0,0,0-7.78,19.09c0,7.63,2.5,13.47,7.5,17.57S252.31,217,268.69,223q27,9.84,42.34,18.63a66.41,66.41,0,0,1,24.53,24.22q9.15,15.47,9.16,36.12Q344.72,333.7,325.81,354.84Z"/></svg>