<svg id="Capa_1" data-name="Capa 1" xmlns="http://www.w3.org/2000/svg" viewBox="0 0 491.35 512"><defs><style>.cls-1{fill:#1abc9c;}</style></defs><title>Technology</title><path id="_复合路径_" data-name="&lt;复合路径&gt;" class="cls-1" d="M314.36,447.42v15a23.72,23.72,0,0,1-20.12,23.49l-3.69,13.59A16.9,16.9,0,0,1,274.23,512H237.67a16.91,16.91,0,0,1-16.33-12.54l-3.58-13.59a23.83,23.83,0,0,1-20.23-23.6V447.32A14.39,14.39,0,0,1,212,432.88h88A14.54,14.54,0,0,1,314.36,447.42ZM382.1,245.78a125.51,125.51,0,0,1-35.39,87.55,115.65,115.65,0,0,0-31,62.79,20.85,20.85,0,0,1-20.65,17.59H216.81a20.65,20.65,0,0,1-20.54-17.49,117,117,0,0,0-31.19-63,126.12,126.12,0,1,1,217-87.44ZM270.22,169.4A14.23,14.23,0,0,0,256,155.18a91.11,91.11,0,0,0-91,91,14.22,14.22,0,0,0,28.44,0A62.66,62.66,0,0,1,256,183.62,14.16,14.16,0,0,0,270.22,169.4ZM256,78.27a14.22,14.22,0,0,0,14.22-14.22V14.22a14.22,14.22,0,0,0-28.44,0V64.05A14.22,14.22,0,0,0,256,78.27ZM88.6,245.68a14.23,14.23,0,0,0-14.22-14.23H24.55a14.23,14.23,0,1,0,0,28.45H74.38A14.16,14.16,0,0,0,88.6,245.68Zm398.85-14.23H437.62a14.23,14.23,0,0,0,0,28.45h49.83a14.23,14.23,0,1,0,0-28.45ZM117.57,364.09,82.28,399.38a14.19,14.19,0,0,0,20,20.12l35.3-35.29a14.19,14.19,0,0,0-20-20.12ZM384.42,131.48a14.21,14.21,0,0,0,10-4.11l35.29-35.29A14.23,14.23,0,0,0,409.6,72l-35.29,35.3a14.17,14.17,0,0,0,0,20.12A14.42,14.42,0,0,0,384.42,131.48Zm-266.85-4.22a14.19,14.19,0,0,0,20-20.12l-35.3-35.29A14.23,14.23,0,0,0,82.17,92ZM394.43,364.09a14.23,14.23,0,0,0-20.12,20.12L409.6,419.5a14.19,14.19,0,1,0,20-20.12Z" transform="translate(-10.32 0)"/></svg>